# xmcd CD database file
#
# Track frame offsets:
#	150
#	16144
#	29194
#	46294
#	61744
#	87694
#	101944
#	118144
#	145594
#	158944
#	173937
#	188037
#	200487
#	215937
#
# Disc length: 3097 seconds
#
# Revision: 0
# Processed by: cddbd v1.5.2PL0 Copyright (c) Steve Scherf et al.
# Submitted via: CDex 1.51
#
DISCID=d30c170e
DTITLE=Grant Hart - A Collection Of True Blue Dinkum Aussie Classics
DYEAR=1900
DGENRE=Country
TTITLE0=Grant Hart - Malley Bay
TTITLE1=Grant Hart - The Biggest Disappointment
TTITLE2=Grant Hart - Bremer Bay
TTITLE3=Grant Hart - You Can't Take It With You
TTITLE4=Grant Hart - Annual Migration
TTITLE5=Grant Hart - Country Mile
TTITLE6=Grant Hart - When's It Gonna Rain
TTITLE7=Grant Hart - Bush Barber
TTITLE8=Grant Hart - Country Revival
TTITLE9=Grant Hart - It Feels So Good
TTITLE10=Grant Hart - Looking Forward
TTITLE11=Grant Hart - Malley Root
TTITLE12=Grant Hart - Moisture Meter Misery
TTITLE13=Grant Hart - True Blue
EXTD=
EXTT0=
EXTT1=
EXTT2=
EXTT3=
EXTT4=
EXTT5=
EXTT6=
EXTT7=
EXTT8=
EXTT9=
EXTT10=
EXTT11=
EXTT12=
EXTT13=
PLAYORDER=
